<svg width="417" height="419" viewBox="0 0 417 419" fill="none" xmlns="http://www.w3.org/2000/svg">
<mask id="mask0_0_1" style="mask-type:alpha" maskUnits="userSpaceOnUse" x="0" y="19" width="330" height="400">
<rect y="19" width="330" height="400" rx="48" fill="#DBEFFA"/>
</mask>
<g mask="url(#mask0_0_1)">
<rect y="19" width="330" height="400" rx="48" fill="#FADBE2"/>
</g>
<circle cx="275" cy="2" r="2" fill="#7B55EC"/>
<circle cx="295" cy="2" r="2" fill="#7B55EC"/>
<circle cx="315" cy="2" r="2" fill="#7B55EC"/>
<circle cx="335" cy="2" r="2" fill="#7B55EC"/>
<circle cx="355" cy="2" r="2" fill="#7B55EC"/>
<circle cx="375" cy="2" r="2" fill="#7B55EC"/>
<circle cx="395" cy="2" r="2" fill="#7B55EC"/>
<circle cx="415" cy="2" r="2" fill="#7B55EC"/>
<circle cx="275" cy="22" r="2" fill="#7B55EC"/>
<circle cx="295" cy="22" r="2" fill="#7B55EC"/>
<circle cx="315" cy="22" r="2" fill="#7B55EC"/>
<circle cx="335" cy="22" r="2" fill="#7B55EC"/>
<circle cx="355" cy="22" r="2" fill="#7B55EC"/>
<circle cx="375" cy="22" r="2" fill="#7B55EC"/>
<circle cx="395" cy="22" r="2" fill="#7B55EC"/>
<circle cx="415" cy="22" r="2" fill="#7B55EC"/>
<circle cx="275" cy="42" r="2" fill="#7B55EC"/>
<circle cx="295" cy="42" r="2" fill="#7B55EC"/>
<circle cx="315" cy="42" r="2" fill="#7B55EC"/>
<circle cx="335" cy="42" r="2" fill="#7B55EC"/>
<circle cx="355" cy="42" r="2" fill="#7B55EC"/>
<circle cx="375" cy="42" r="2" fill="#7B55EC"/>
<circle cx="395" cy="42" r="2" fill="#7B55EC"/>
<circle cx="415" cy="42" r="2" fill="#7B55EC"/>
<circle cx="275" cy="62" r="2" fill="#7B55EC"/>
<circle cx="295" cy="62" r="2" fill="#7B55EC"/>
<circle cx="315" cy="62" r="2" fill="#7B55EC"/>
<circle cx="335" cy="62" r="2" fill="#7B55EC"/>
<circle cx="355" cy="62" r="2" fill="#7B55EC"/>
<circle cx="375" cy="62" r="2" fill="#7B55EC"/>
<circle cx="395" cy="62" r="2" fill="#7B55EC"/>
<circle cx="415" cy="62" r="2" fill="#7B55EC"/>
<circle cx="275" cy="82" r="2" fill="#7B55EC"/>
<circle cx="295" cy="82" r="2" fill="#7B55EC"/>
<circle cx="315" cy="82" r="2" fill="#7B55EC"/>
<circle cx="335" cy="82" r="2" fill="#7B55EC"/>
<circle cx="355" cy="82" r="2" fill="#7B55EC"/>
<circle cx="375" cy="82" r="2" fill="#7B55EC"/>
<circle cx="395" cy="82" r="2" fill="#7B55EC"/>
<circle cx="415" cy="82" r="2" fill="#7B55EC"/>
<circle cx="275" cy="102" r="2" fill="#7B55EC"/>
<circle cx="295" cy="102" r="2" fill="#7B55EC"/>
<circle cx="315" cy="102" r="2" fill="#7B55EC"/>
<circle cx="335" cy="102" r="2" fill="#7B55EC"/>
<circle cx="355" cy="102" r="2" fill="#7B55EC"/>
<circle cx="375" cy="102" r="2" fill="#7B55EC"/>
<circle cx="395" cy="102" r="2" fill="#7B55EC"/>
<circle cx="415" cy="102" r="2" fill="#7B55EC"/>
<circle cx="275" cy="122" r="2" fill="#7B55EC"/>
<circle cx="295" cy="122" r="2" fill="#7B55EC"/>
<circle cx="315" cy="122" r="2" fill="#7B55EC"/>
<circle cx="335" cy="122" r="2" fill="#7B55EC"/>
<circle cx="355" cy="122" r="2" fill="#7B55EC"/>
<circle cx="375" cy="122" r="2" fill="#7B55EC"/>
<circle cx="395" cy="122" r="2" fill="#7B55EC"/>
<circle cx="415" cy="122" r="2" fill="#7B55EC"/>
<circle cx="275" cy="142" r="2" fill="#7B55EC"/>
<circle cx="295" cy="142" r="2" fill="#7B55EC"/>
<circle cx="315" cy="142" r="2" fill="#7B55EC"/>
<circle cx="335" cy="142" r="2" fill="#7B55EC"/>
<circle cx="355" cy="142" r="2" fill="#7B55EC"/>
<circle cx="375" cy="142" r="2" fill="#7B55EC"/>
<circle cx="395" cy="142" r="2" fill="#7B55EC"/>
<circle cx="415" cy="142" r="2" fill="#7B55EC"/>
</svg>
